<?xml version="1.0" encoding="UTF-8"?>
<svg id="Layer_2" data-name="Layer 2" xmlns="http://www.w3.org/2000/svg" viewBox="0 0 60.79 75.69">
  <defs>
    <style>
      .cls-1 {
        fill: #1cbcbd;
      }
    </style>
  </defs>
  <g id="Layer_1-2" data-name="Layer 1">
    <g>
      <path class="cls-1" d="M23.29,0c.55.2,1.13.28,1.7.44,2.81.81,4.17,2.08,7.31,1.26,1.73-.45,3.4-1.34,5.18-1.7h1.77c4,.97,4.66,6.3,8.09,7.8,2.35,1.02,5.79,1.15,7.49,3.3,2.34,2.94.11,7.53,1.65,10.47,1.12,2.13,3.51,3.86,4.14,6.36.97,3.86-2.66,5.99-4.14,8.89-1.36,2.66.26,6.61-1.04,9.45-.68,1.48-1.98,2.11-3.31,2.88l6.83,16.22c.68,2.74-1.25,4.85-4.05,4.34-1.25-.23-4.78-2.07-5.76-1.63-.67.31-2.71,5.33-3.55,6.35-1.57,1.89-4.37,1.6-5.59-.47l-7.04-16.76c-.42-1.26-4.41-1.02-4.97-.33l-7.18,17.03c-1.09,1.98-3.86,2.42-5.44.74-.91-.97-3.1-6.3-3.63-6.56-.99-.48-4.62,1.4-5.91,1.63-2.88.53-4.8-1.7-4.01-4.45l6.59-15.74.08-.5c-5-1.86-3.35-6.48-3.7-10.52-.32-3.66-5.8-5.89-4.67-10.57.74-3.07,4.41-5.21,4.67-8.19.26-3.05-.91-7.06,1.78-9.31,1.83-1.53,4.59-1.71,6.72-2.6,3.53-1.47,4.16-6.78,8.2-7.84h1.77ZM22.07,2.4c-2.32.37-4.11,5.36-6.42,6.89-2.08,1.37-6.79,1.72-7.95,3.44s-.06,6.3-.78,8.68c-.76,2.5-4.63,5.59-4.6,7.79.03,2.19,3.72,5.12,4.52,7.57.8,2.46-.32,7.22.86,8.9,1.21,1.73,6.19,1.98,8.33,3.64,2.08,1.62,3.97,6.75,6.58,6.7,2.6-.05,5.08-2.27,8.3-2.06,2.53.16,5.99,2.55,8.17,1.97,1.82-.48,3.91-5.18,5.81-6.61,2.05-1.56,7-1.91,8.18-3.5,1.19-1.59.37-5.04.52-7.02.32-4.36,4.38-6.18,4.85-9.05.43-2.64-3.85-5.65-4.59-8.5-.65-2.48.52-6.72-.78-8.53-1.45-2.02-6.72-1.75-9.23-4.52-1.52-1.68-3.15-5.85-5.66-5.79-2.41.06-5.1,2.19-7.86,2.16-2.62-.03-6.11-2.51-8.26-2.17ZM24.92,57.95c-1.53.32-3.18.59-4.63-.17-2.8-1.48-3.79-5.74-6.36-7.1-.42-.22-2.76-1.04-3.04-.84l-6.81,16.48c-.06.31.15.88.44,1.02,1.44.69,5.55-2.68,8.19-1.39,1.9.93,3.13,5.15,4.31,6.92.54.68,1.52.6,1.82-.23,1.59-4.72,4.51-9.57,6.01-14.24.05-.15.1-.28.07-.45ZM35.86,57.95l6.29,14.92c.58.78,1.23.55,1.75-.15,1.46-1.95,2.36-6.78,5.18-7.09,2.28-.24,4.65,1.66,6.66,1.78.87.05,1.25-.5,1.03-1.34l-6.7-15.92-.27-.32c-2.62.54-3.6,1.17-5.14,3.25-2.39,3.23-3.85,6.64-8.81,4.86Z"/>
      <path class="cls-1" d="M29.33,8.03c15.48-.88,26.61,15.01,20.61,29.33-6.41,15.27-27.14,17.51-36.75,4.02-9.71-13.63-.4-32.42,16.14-33.35ZM29.47,10.39c-14.7.82-22.96,17.54-14.37,29.65,8.05,11.35,25.42,10.23,31.92-2.05,6.78-12.82-3.08-28.41-17.55-27.6Z"/>
      <path class="cls-1" d="M30.05,17.18c.76-.17,1.09.06,1.5.66,1.24,1.82,1.99,4.52,3.19,6.42l7.51,1.21c.88.23,1.14,1.27.56,1.96l-5.3,5.21c-.13,1.65,1.6,6.78,1.08,8.02-.24.57-1.11.78-1.66.48l-6.5-3.4-6.81,3.49c-.9.21-1.65-.44-1.5-1.35l1.28-7.25-5.37-5.26c-.63-.7-.22-1.64.63-1.89l7.42-1.15,3.28-6.62c.15-.25.39-.44.67-.51ZM39.26,27.5c-.24-.33-5.21-.47-6.06-1.11s-2-4.33-2.67-5.39c-.25-.19-2.26,4.51-2.48,4.83-.66.98-1.68.87-2.79,1.06-1.23.21-2.5.35-3.75.47.53.99,4.03,3.64,4.26,4.39.38,1.27-.94,4.61-.78,6.11,1.28-.32,4.37-2.68,5.47-2.67s4.12,2.32,5.39,2.67c.26-.36-1.13-5.11-.82-6.07.23-.71,4.4-4.04,4.22-4.28Z"/>
    </g>
  </g>
</svg>