<?xml version="1.0" encoding="UTF-8"?>
<svg id="Layer_2" data-name="Layer 2" xmlns="http://www.w3.org/2000/svg" viewBox="0 0 73.43 65.69">
  <defs>
    <style>
      .cls-1 {
        fill: #1cbcbd;
      }
    </style>
  </defs>
  <g id="Layer_1-2" data-name="Layer 1">
    <g>
      <path class="cls-1" d="M37.2,25.5c.53-.02,1.17.26,1.75.26s1.25-.32,1.74-.28c1.11.1,5,1.4,6.32,1.82,5.31,1.67,6.85,3.71,7.1,9.31.1,2.25.47,6.01-2.59,6.29h-25.14c-1.25,0-2.41-1.26-2.57-2.46-.26-1.89-.03-6.31.57-8.12.97-2.89,3.82-4.17,6.51-5.02,1.12-.35,5.47-1.76,6.3-1.8ZM37.7,27.96c-1.16.12-2.36.53-3.48.89-.17.05-.26-.11-.22.22l5.02,9.98,4.88-9.98c-.01-.2-3.34-1.23-3.84-1.11v4.07c0,.32-1,.73-1.4.67-.36-.06-.97-.8-.97-1.11v-3.62ZM26.17,35.58c-.11,1.48,0,3.22,0,4.73,0,.02.21.22.22.22h10.57l-5.33-10.94c-2.06.48-4.41,1.53-5.06,3.72-.17.58-.35,1.66-.4,2.26ZM51.59,40.53c.2,0,.17-3.53.15-3.92-.06-1.16-.17-2.75-.63-3.8-.8-1.84-2.92-2.73-4.75-3.2l-5.56,10.92h10.79Z"/>
      <path class="cls-1" d="M22.8,55.64c-.08.06-.47,1.36-.46,1.53.01.24.53.88.65,1.25.8,2.41-1.16,4.53-3.66,4.1-.7-.12-1.24-.82-1.88-.64-1.39.38-1.04,1.22-1.54,2.16-1.29,2.42-4.75,1.98-5.71-.52-.11-.29-.09-.87-.23-.98-.2-.16-1.32-.47-1.6-.43-.36.05-.91.61-1.37.71-2.73.55-4.74-1.85-3.67-4.4.28-.67.7-.41.34-1.37-.49-1.29-1.04-.88-2.02-1.38-2.33-1.18-2.12-4.69.24-5.65.69-.28.96.07,1.36-.71.66-1.3.08-1.26-.29-2.19-1.02-2.59,1.49-5.14,4.1-4.1.63.25.67.7,1.41.44,1.37-.48,1.03-1.22,1.62-2.23,1.22-2.08,4.42-1.92,5.47.24.43.89.14,1.46,1.45,1.81.69.19.77-.27,1.3-.49,2.86-1.17,5.42,1.26,4.28,4.14-.18.45-.63.6-.49,1.15.04.17.61,1.1.74,1.19.26.19.87.2,1.27.36,2.26.94,2.4,4.48.16,5.63-.41.21-1.33.3-1.46.39ZM23.32,53.06c.22-.22.26-.83.05-1.09s-1.06-.31-1.45-.47c-1.16-.5-2.34-2.69-2.27-3.94.05-.9,1.22-1.83.67-2.44-.73-.8-1.2.15-1.81.4-1.54.62-4.34-.53-4.92-2.1-.21-.57,0-1.23-.8-1.28-1.01-.06-.7.7-.92,1.31-.59,1.57-3.3,3-4.9,2.31-.54-.23-1.06-1.08-1.71-.35-.6.68.16,1.02.39,1.51.7,1.47-.23,4.44-1.81,5.05-.64.25-1.89.16-1.4,1.26.25.55.83.37,1.26.52,1.37.48,2.66,2.87,2.5,4.28-.1.88-1.36,1.71-.52,2.32.7.5,1.06-.16,1.56-.38,1.53-.68,4.43.28,5.04,1.91.17.45.11,1.36.81,1.42.81.07.76-.94.94-1.42.58-1.55,3.24-2.89,4.82-2.29.57.22.93,1.03,1.7.39.66-.54-.11-1.05-.34-1.61-.63-1.57.25-4.49,1.95-5.06.32-.11.93-.04,1.15-.25Z"/>
      <path class="cls-1" d="M54.22,44.11l17.64.04c.95.39,1.39,1.05,1.48,2.07.31,3.53-.24,7.51,0,11.09-.11,1.11-1.01,1.97-2.14,2-5.3-.36-11.19.46-16.42,0-1.22-.11-2.01-.76-2.14-2-.38-3.56.29-7.76,0-11.39.1-.86.79-1.55,1.59-1.81ZM68.6,46.44h-11.24c.04.18.24.32.37.44.8.71,2.95,2.58,3.78,3.02.36.19.98.39,1.39.4,1.71.05,4.32-2.84,5.69-3.86ZM70.96,47.77l-5.57,4.26c-4.31,2.33-7.18-2.25-10.39-4.26v9.17h15.97v-9.17Z"/>
      <path class="cls-1" d="M9.43,6.13c13.33-1.51,14.83,18.05,2.45,19.31C-1.15,26.75-2.68,7.49,9.43,6.13ZM9.61,8.6c-5.49.69-8.15,7.41-4.59,11.76,3.52,4.29,10.33,3.43,12.49-1.71.1-.25.69-1.77.3-1.77h-7.54s-.67-.62-.67-.67v-7.61ZM18.04,14.51c-.61-2.96-2.95-5.62-6.06-5.91v5.91h6.06Z"/>
      <path class="cls-1" d="M62.83,12.44c.28.28,7.03-.39,7.9.16.32.2.55.85.54,1.23-.28,3.81.34,8.08,0,11.84-.07.81-.38,1.38-1.26,1.41-5.01-.36-10.6.45-15.54,0-.81-.07-1.24-.4-1.26-1.26.36-5.05-.45-10.71,0-15.68.07-.76.32-1.16,1.11-1.25,1.05-.12,5.37-.15,6.3.07,1.31.3,2.48,2.15,2.21,3.49ZM68.89,14.81h-7.47c-.18,0-.81-.48-.9-.73-.15-.47.12-2.82-.43-2.82h-4.51v13.45h13.31v-9.9Z"/>
      <path class="cls-1" d="M35.3.07c6.09-.39,12.24.9,17.63,3.72.68.36,3.79,2.14,3.96,2.7.29.96-.41,1.88-1.45,1.6-.65-.17-2.5-1.6-3.3-2.03C42.14.62,29.58,1.26,20.25,7.78c-1,.42-2.04-.35-1.7-1.4.19-.59,2.17-1.73,2.79-2.09C25.52,1.9,30.48.37,35.3.07Z"/>
      <path class="cls-1" d="M37.96,9.08c6.5-.78,8.22,4.81,7.06,10.16-1.51,6.93-10.5,7.08-12.16.02-1.03-4.39-.19-9.55,5.1-10.19ZM38.11,11.45c-4.83.71-3.76,9.15-.7,10.38,3.08,1.24,5.01-1.02,5.45-3.86.56-3.6-.28-7.18-4.75-6.52Z"/>
      <path class="cls-1" d="M24.8,60.66c.46-.06,3.17,1.12,3.92,1.34,5.76,1.72,11.79,1.72,17.56.03.95-.28,2.85-1.19,3.62-1.26,1.51-.15,2,1.48.62,2.25-3.46,1.95-10.73,2.83-14.67,2.64-2.87-.14-8.89-1.26-11.34-2.7-1.12-.66-.88-2.15.29-2.3Z"/>
      <path class="cls-1" d="M69.88,28.16c.35.38.46,1.94.5,2.53.11,1.87.02,4.04-.17,5.9-.09.89-.38,3.27-.75,3.98-.53,1-2.17.59-2.2-.56.64-3.07.83-6.04.75-9.17-.02-.75-.46-1.94.06-2.59.42-.54,1.35-.6,1.81-.09Z"/>
      <path class="cls-1" d="M7.05,28.16c.61.67.07,2.39.04,3.27-.1,3,.36,5.78.75,8.74-.49,1.42-1.91,1.23-2.33-.2-.67-2.26-.91-6.31-.79-8.69.03-.6.18-2.55.44-2.96.37-.6,1.4-.69,1.88-.17Z"/>
      <path class="cls-1" d="M12.09,46.34c6.64-.79,9.95,7.72,4.52,11.61-3.01,2.16-7.55,1.07-9.29-2.19-2.09-3.91.34-8.89,4.77-9.42ZM12.23,48.7c-1.38.22-2.73,1.45-3.14,2.78-1.23,4.05,3.73,6.93,6.65,4.13,2.86-2.75.37-7.52-3.51-6.91Z"/>
      <path class="cls-1" d="M58.06,20.01c.46-.1,2.74-.1,3.11.08.97.45.66,2.07-.49,2.25-.51.08-2.25.07-2.69-.1-1-.4-1.05-1.97.07-2.22Z"/>
    </g>
  </g>
</svg>