<?xml version="1.0" encoding="UTF-8"?>
<svg id="Layer_2" data-name="Layer 2" xmlns="http://www.w3.org/2000/svg" viewBox="0 0 71.44 71.44">
  <defs>
    <style>
      .cls-1 {
        fill: #1cbcbd;
      }
    </style>
  </defs>
  <g id="Layer_1-2" data-name="Layer 1">
    <g>
      <path class="cls-1" d="M41.04,0c.23.32.44.47.6.86.64,1.63.72,4.14,1.24,5.88.02.12.11.16.19.23.36.27,3.19,1.03,3.96,1.34,1.37.56,2.6,1.35,3.97,1.88,1.67-.83,3.17-2.16,4.78-3.05.91-.5,1.11-.65,2,.04,1.43,1.1,5.27,4.99,6.42,6.42.3.37.68.82.49,1.33l-3.36,5.31c-.06.1-.08.21-.07.33.01.28,1.61,3.2,1.88,3.86.52,1.26.9,2.56,1.3,3.87l.27.29,5.98,1.28.73.67-.04,10.51c-.22.3-.44.47-.79.6-.99.39-5.68,1.01-6.05,1.35-.83,2.7-1.82,5.34-3.26,7.79l.05.44,3.36,5.31c.19.52-.2.96-.49,1.33-1.15,1.43-5,5.32-6.42,6.42-.89.69-1.09.54-2,.04-1.61-.88-3.12-2.22-4.78-3.05-1.37.53-2.61,1.32-3.97,1.88-.77.32-3.6,1.07-3.96,1.34-.09.06-.17.11-.19.23-.52,1.74-.6,4.24-1.24,5.88-.14.36-.35.65-.7.84h-10.41l-.67-.73-1.28-5.98-.29-.27c-1.3-.4-2.61-.78-3.87-1.3-.66-.27-3.58-1.87-3.86-1.88-.73-.04-4.57,3.11-5.64,3.43-.52.19-.96-.2-1.33-.49-1.43-1.15-5.32-5-6.42-6.42-.69-.89-.54-1.09-.04-2,.88-1.61,2.22-3.12,3.05-4.78-.53-1.37-1.32-2.61-1.88-3.97-.32-.77-1.07-3.6-1.34-3.96-.06-.09-.11-.17-.23-.19-1.74-.53-4.24-.6-5.88-1.24-.4-.16-.54-.37-.86-.6v-10.61c.32-.23.47-.44.86-.6,1.63-.64,4.14-.72,5.88-1.24.12-.02.16-.11.23-.19.27-.36,1.03-3.19,1.34-3.96.56-1.36,1.35-2.6,1.88-3.97-.83-1.67-2.16-3.17-3.05-4.78-.5-.91-.65-1.11.04-2,1.1-1.43,4.99-5.27,6.42-6.42.37-.3.82-.68,1.33-.49,1.07.32,4.91,3.47,5.64,3.43.28-.01,3.2-1.61,3.86-1.88,1.26-.52,2.56-.9,3.87-1.3l.29-.27c.53-1.74.6-4.24,1.24-5.88.16-.4.37-.54.6-.86h10.61ZM39.77,2.11h-8.07c-.52,1.82-.68,3.89-1.22,5.69-.07.24-.09.51-.26.72-.37.45-2.27.75-2.93.98-2.28.79-4.39,1.79-6.45,3.05l-.84-.08-5.2-3.32-5.7,5.73,3.3,5.05c.14.2.18.43.17.67-.02.45-1.82,3.46-2.17,4.26-.3.68-.56,1.42-.81,2.12-.32.92-.51,3.06-1.46,3.42-.78.3-5.96,1.08-6.04,1.38l.02,8c1.82.52,3.89.68,5.69,1.22.24.07.51.09.72.26.45.37.75,2.27.98,2.93.79,2.28,1.79,4.39,3.05,6.45l-.08.84-3.32,5.2,5.73,5.7,5.05-3.3c.2-.14.43-.18.67-.17.45.02,3.46,1.82,4.26,2.17.68.3,1.42.56,2.12.81.92.32,3.06.51,3.42,1.46.3.78,1.08,5.96,1.38,6.04l8-.02c.52-1.82.68-3.89,1.22-5.69.07-.24.09-.51.26-.72.37-.45,2.27-.75,2.93-.98,2.28-.79,4.39-1.79,6.45-3.05l.84.08,5.2,3.32,5.7-5.73-3.3-5.05c-.14-.2-.18-.43-.17-.67.02-.45,1.82-3.46,2.17-4.26.3-.69.56-1.42.81-2.12.33-.94.55-3.07,1.46-3.42.78-.3,5.96-1.08,6.04-1.38l-.02-8c-1.82-.52-3.89-.68-5.69-1.22-.24-.07-.51-.09-.72-.26-.42-.35-.75-2.28-.98-2.93-.79-2.28-1.79-4.39-3.05-6.45l.08-.84,3.32-5.2-5.73-5.7-5.05,3.3c-.2.14-.43.18-.67.17-.45-.02-3.46-1.82-4.26-2.17-.69-.3-1.42-.56-2.12-.81-.94-.33-3.07-.55-3.42-1.46l-1.31-6.02Z"/>
      <path class="cls-1" d="M33.61,16.65c17.18-1.57,27.85,17.88,16.91,31.29-9.02,11.06-26.78,8.46-32.4-4.58-5.03-11.65,2.77-25.55,15.49-26.71ZM34.62,18.7c-3.75.18-7.42,1.74-10.19,4.26l4.95,4.93c1.48-1.27,3.3-1.94,5.24-2.21v-6.98ZM36.85,25.68c1.93.27,3.75.94,5.24,2.21l4.95-4.93c-2.77-2.52-6.43-4.08-10.19-4.26v6.98ZM25.68,34.62c.27-1.93.94-3.75,2.21-5.24l-4.93-4.95c-2.52,2.77-4.08,6.43-4.26,10.19h6.98ZM52.76,34.62c-.18-3.75-1.74-7.42-4.26-10.19l-4.93,4.95c1.27,1.48,1.94,3.3,2.21,5.24h6.98ZM34.62,27.78c-1.36.22-2.67.77-3.77,1.61l3.77,3.7v-5.3ZM36.85,33.08l3.77-3.7c-1.1-.84-2.41-1.38-3.77-1.61v5.3ZM33.08,34.62l-3.7-3.77c-.84,1.1-1.38,2.41-1.61,3.77h5.3ZM43.69,34.62c-.22-1.36-.77-2.67-1.61-3.77l-3.7,3.77h5.3ZM25.68,36.85h-6.98c.18,3.75,1.74,7.42,4.26,10.19l4.93-4.95c-1.27-1.48-1.94-3.3-2.21-5.24ZM33.08,36.85h-5.3c.22,1.36.77,2.67,1.61,3.77l3.7-3.77ZM43.69,36.85h-5.3l3.7,3.77c.84-1.1,1.38-2.41,1.61-3.77ZM52.76,36.85h-6.98c-.27,1.93-.94,3.75-2.21,5.24l4.93,4.95c2.52-2.77,4.08-6.43,4.26-10.19ZM34.62,43.69v-5.3l-3.77,3.7c1.1.84,2.41,1.38,3.77,1.61ZM36.85,43.69c1.36-.22,2.67-.77,3.77-1.61l-3.77-3.7v5.3ZM34.62,45.78c-1.93-.27-3.75-.94-5.24-2.21l-4.95,4.93c2.77,2.52,6.43,4.08,10.19,4.26v-6.98ZM36.85,52.76c3.75-.18,7.42-1.74,10.19-4.26l-4.95-4.93c-1.48,1.27-3.3,1.94-5.24,2.21v6.98Z"/>
      <path class="cls-1" d="M33.33,12.46c16.68-1.4,29.59,13.88,24.77,30.08-4.45,14.97-22.91,21.52-35.76,12.38-.8-.57-2.04-1.28-1.79-2.33.41-1.8,2.53.32,3.13.71,9.94,6.4,22.61,4.35,29.47-5.38,8.82-12.51,1.63-30.29-13.35-33.08C21.02,11.33,7.79,31.67,18.17,47.78c.4.62,2.32,2.42.92,3.06-1.14.52-1.96-.91-2.54-1.72-10.18-14.31-.67-35.2,16.78-36.66Z"/>
    </g>
  </g>
</svg>