<?xml version="1.0" encoding="UTF-8"?>
<svg id="Layer_2" data-name="Layer 2" xmlns="http://www.w3.org/2000/svg" viewBox="0 0 73.8 75.38">
  <defs>
    <style>
      .cls-1 {
        fill: #1cbcbd;
      }
    </style>
  </defs>
  <g id="Layer_1-2" data-name="Layer 1">
    <g>
      <path class="cls-1" d="M30.4.05c11.13-.62,22.28,4.04,31.56,9.74.58.36,2.76,1.61,2.95,2.08.28,8.55,0,17.16.14,25.73,1.31,1.06,2.74,1.96,3.89,3.2,13.65,14.68-3.98,37.39-21.76,27.38-.44-.25-1.88-1.39-2.18-1.36l-12.05,8.52-.63.04c-6.33-4.56-12.83-8.92-19.08-13.6C5.08,55.67.61,48.86.12,38.37c-.39-8.47.3-17.23,0-25.73,0-.33.09-.64.27-.91.32-.5,2.71-1.82,3.39-2.23C11.77,4.71,20.94.58,30.4.05ZM62.66,36.53V13.09c-3.44-2.22-7.11-4.32-10.84-6.01-10.06-4.58-19.61-6.09-30.41-3-6.7,1.91-12.85,5.3-18.78,8.87l-.15.44c.95,15.76-4.31,34.95,10.81,45.53l19.31,13.82,10.53-7.72c-.31-.28-1.38-1.9-1.66-1.85-2.89,1.98-5.65,4.21-8.61,6.04l-.69-.03-18.07-12.98C1.18,46.45,6.11,29.38,5.14,15.45l.3-1.03c5.19-3.2,10.81-6.15,16.71-7.83,11.56-3.29,21.07-.99,31.47,4.3.91.46,6.06,3.2,6.3,3.76l.08,20.77c0,.13.04.22.15.3.36.27,2.02.43,2.52.81ZM57.63,35.34V15.9c-8.31-5.1-18-9.28-28.01-8.35-7.92.74-15.27,4.35-22.03,8.28l-.07,22.54c.31,6.15,2.88,11.55,7.54,15.53l17.44,12.58,7.82-5.51c-1.11-2.31-1.88-4.85-1.9-7.45h-18.11c-1.95-.24-3.57-1.79-3.78-3.76.46-6.52-.59-13.84,0-20.27.17-1.82,1.59-3.36,3.37-3.73.36-.07,1.13.07,1.3-.17.04-4.34-.3-7.89,2.65-11.39,5.51-6.55,16.02-4.99,19.27,2.91,1.16,2.81.9,5.65.91,8.63,1.65-.29,3.54.86,4.26,2.32.13.26.47,1.23.47,1.45v7.32c2.75-1.21,5.87-1.85,8.87-1.48ZM39.15,25.73h2.29c.16,0,.21-.36.23-.51.18-1.57.05-4.5-.35-6.03-1.92-7.39-11.72-9.2-16.1-2.88-.55.79-1.59,2.81-1.59,3.73v5.69h2.37v-4.21c0-5.68,6.97-8.71,11.12-4.81.79.75,2.04,2.84,2.04,3.92v5.1ZM36.79,25.73v-4.95c0-.57-.94-2.03-1.41-2.44-2.7-2.33-7.02-.37-7.02,3.18v3.99s.21.22.22.22h8.2ZM20.19,28.13c-.5.11-1.3.97-1.29,1.52v19.82c-.03.88.89,1.6,1.7,1.7l17.83-.07c.63-5.38,3.56-9.98,7.95-13.04-.17-2.57.31-5.6.02-8.11-.12-1.06-.75-1.79-1.84-1.85l-24.37.04ZM55.23,37.6c-11.68.68-18.46,13.74-12.04,23.63,6.09,9.38,20.03,9.24,25.88-.33,6.39-10.45-1.62-24.01-13.84-23.3Z"/>
      <path class="cls-1" d="M66.37,45.86c-.52-.87-1.65-1.67-3.26-1.34-.33.07-1.08.56-1.47.87l-8.39,8.38-.07.02c-.34.1-.51-.16-.57-.26-.42-.44-.76-.91-1.11-1.41-.65-.91-1.32-1.85-2.29-2.2-.35-.13-.7-.19-1.05-.19-.79,0-1.54.32-2.1.92-.83.89-1.01,2.16-.49,3.31.46,1.01,3.91,5.21,4.86,6.25,1.26,1.38,2.85,1.53,4.35.4,2.03-1.53,4.05-3.77,6-5.93,1.72-1.91,3.5-3.88,5.3-5.37.82-1.01.95-2.35.28-3.45ZM64.63,48.17l-11.47,11.31c-.14.06-.27.09-.41.09-.09,0-.18-.01-.26-.04-.45-.13-1.42-1.34-3.55-4.21-.72-.96-1.39-1.87-1.67-2.16l-.06-.11c-.15-.47-.05-.93.26-1.22.32-.3.82-.36,1.29-.17l.11.08,3.5,4.35c.19.14.54.32.9.17l10.16-9.92c.55-.17,1.11.02,1.39.46.26.42.19.96-.18,1.36Z"/>
      <path class="cls-1" d="M35.64,41.44c-.15.26.03,2.22-.07,2.82-.43,2.74-4.01,3.42-5.5,1.14-.78-1.19-.08-2.64-.41-3.73-.07-.25-1.17-1.21-1.47-1.78-2.58-4.79,3.29-9.69,7.55-6.37,2.5,1.94,2.42,5.24.46,7.54-.16.18-.54.34-.57.39ZM32.06,40.74c.15.83,0,2.46,0,3.4,0,.26.89.38,1.11-.07.33-.68-.14-2.74.1-3.59.12-.41,1.23-.98,1.57-1.53,1.44-2.32-.93-4.98-3.41-3.86-1.59.72-1.97,2.99-.76,4.23.45.47,1.25.6,1.39,1.42Z"/>
    </g>
  </g>
</svg>