<?xml version="1.0" encoding="UTF-8"?>
<svg id="Layer_2" data-name="Layer 2" xmlns="http://www.w3.org/2000/svg" viewBox="0 0 84.53 60.61">
  <defs>
    <style>
      .cls-1 {
        fill: #1cbcbd;
      }

      .cls-2 {
        fill: #fff;
      }
    </style>
  </defs>
  <g id="Layer_1-2" data-name="Layer 1">
    <g>
      <g>
        <polygon class="cls-2" points="72.26 14.53 74.5 14.5 71.6 33.57 69.14 35.11 68.79 37.47 78.97 37.47 82.84 11.87 72.66 11.85 72.26 14.53"/>
        <polygon class="cls-1" points="74.35 .73 73 9.66 83.18 9.67 84.53 .73 74.35 .73"/>
        <g>
          <path class="cls-2" d="M55.24,16.01l-1.13,7.45h7.19l-.68,4.46c-1.62,1-3.59,1.52-6.11,1.52-5.83,0-9.33-4.25-8.42-10.23l.02-.1c.85-5.62,5.61-10.02,10.91-10.02,3.67,0,6.05,1.26,8.35,3.46l6.5-7.75c-3.38-3.36-7.07-4.79-13.52-4.79-3.36,0-6.58.74-9.48,2.06l-1.48,9.79h-.16s0,.02,0,.02h-1.15s-.93.01-.93.01v-.02s-3.69,0-3.69,0l-3.04,19.92c2.98,4.02,8.04,6.42,14.35,6.42s12.25-2.38,16.59-5.55l2.61-16.65h-16.73Z"/>
          <polygon class="cls-2" points="39.45 9.85 39.48 9.67 39.49 9.64 39.61 9.64 45.49 9.64 46.44 3.34 46.83 .71 27.71 .71 26.37 9.64 29.3 9.64 25.09 37.45 35.28 37.45 36.62 28.58 39.15 11.86 39.45 9.85"/>
          <polygon class="cls-2" points="23.32 .71 2.95 .71 1.6 9.64 7.96 9.64 3.75 37.45 13.93 37.45 18.14 9.64 21.97 9.64 23.96 9.64 25.31 .71 23.32 .71"/>
        </g>
      </g>
      <path class="cls-1" d="M78.63,40.34c-8.12-1.41-59.46-1.76-76.23,5.11l-2.39,15.16c23.62-14.77,51.03-18.8,78.63-20.27Z"/>
    </g>
  </g>
</svg>